<svg width="65" height="64" viewBox="0 0 65 64" fill="none" xmlns="http://www.w3.org/2000/svg">
<path d="M53.2015 38.1012C53.2015 49.5566 43.915 58.8431 32.4596 58.8431C21.0042 58.8431 11.7178 49.5566 11.7178 38.1012C11.7178 26.6458 21.0042 17.3594 32.4596 17.3594C43.915 17.3594 53.2015 26.6458 53.2015 38.1012Z" stroke="white" stroke-width="0.300729"/>
<path fill-rule="evenodd" clip-rule="evenodd" d="M32.4614 18.564C21.6703 18.564 12.9224 27.3119 12.9224 38.103C12.9224 48.894 21.6703 57.6419 32.4614 57.6419C43.2524 57.6419 52.0003 48.894 52.0003 38.103C52.0003 27.3119 43.2524 18.564 32.4614 18.564ZM10.5166 38.103C10.5166 25.9832 20.3416 16.1582 32.4614 16.1582C44.5811 16.1582 54.4061 25.9832 54.4061 38.103C54.4061 50.2227 44.5811 60.0477 32.4614 60.0477C20.3416 60.0477 10.5166 50.2227 10.5166 38.103Z" fill="white" stroke="white" stroke-width="0.501215"/>
<path d="M16.5994 36.5023C16.9714 32.8088 18.6207 29.3609 21.2629 26.7534C23.905 24.1458 27.3743 22.5421 31.0724 22.2188" stroke="white" stroke-width="4.56106"/>
<path d="M20.4679 26.1094L44.6026 50.2441" stroke="white" stroke-width="6.61604"/>
<path d="M27.0743 51.1051C29.6462 52.1704 32.4763 52.4492 35.2066 51.9061C37.9369 51.363 40.4449 50.0224 42.4133 48.054C44.3818 46.0855 45.7223 43.5776 46.2654 40.8472C46.8085 38.1169 46.5298 35.2868 45.4645 32.7149C44.3991 30.143 42.5951 27.9448 40.2804 26.3982C38.0353 24.898 35.4075 24.0763 32.7113 24.0283L32.7113 20.0682C36.1907 20.1166 39.584 21.1706 42.4803 23.1059C45.4461 25.0876 47.7576 27.9042 49.1227 31.1997C50.4877 34.4951 50.8448 38.1213 50.1489 41.6197C49.4531 45.1181 47.7354 48.3316 45.2132 50.8538C42.691 53.376 39.4775 55.0937 35.9791 55.7896C32.4807 56.4854 28.8545 56.1283 25.559 54.7633C22.2636 53.3983 19.447 51.0867 17.4653 48.1209C15.53 45.2246 14.4759 41.8314 14.4276 38.3519L18.3877 38.3519C18.4357 41.0482 19.2574 43.6759 20.7575 45.9211C22.3042 48.2357 24.5024 50.0398 27.0743 51.1051Z" fill="white" stroke="white" stroke-width="0.501215"/>
<mask id="path-6-outside-1_1517_898" maskUnits="userSpaceOnUse" x="24.8604" y="26.1543" width="16" height="25" fill="black">
<rect fill="white" x="24.8604" y="26.1543" width="16" height="25"/>
<path fill-rule="evenodd" clip-rule="evenodd" d="M39.2012 28.9387L37.1902 31.0064C36.567 30.355 35.5757 30.0434 34.0461 30.0434C32.2334 30.0434 31.2987 31.1764 31.2987 32.3943C31.2987 33.7256 32.0068 34.5753 33.8762 35.3118C36.3687 36.3031 38.663 37.8326 38.663 41.5431C38.663 44.6572 36.0932 47.3642 32.4487 47.6384V48.679H34.4035V50.2449H30.6678V47.5896C28.2245 47.2759 26.8709 45.975 25.8604 44.5455L28.098 42.6761C28.6562 43.449 29.3771 44.2544 30.6678 44.599V42.9373H32.4487V44.7569C34.3163 44.5969 35.7456 43.1938 35.7456 41.5148C35.7456 40.0703 35.0375 38.8806 32.6866 37.9459C30.3356 37.0112 28.3529 35.7366 28.3529 32.6209C28.3529 29.6752 30.9304 27.1543 34.2444 27.1543C36.9069 27.1543 38.1815 28.004 39.2012 28.9387Z"/>
</mask>
<path fill-rule="evenodd" clip-rule="evenodd" d="M39.2012 28.9387L37.1902 31.0064C36.567 30.355 35.5757 30.0434 34.0461 30.0434C32.2334 30.0434 31.2987 31.1764 31.2987 32.3943C31.2987 33.7256 32.0068 34.5753 33.8762 35.3118C36.3687 36.3031 38.663 37.8326 38.663 41.5431C38.663 44.6572 36.0932 47.3642 32.4487 47.6384V48.679H34.4035V50.2449H30.6678V47.5896C28.2245 47.2759 26.8709 45.975 25.8604 44.5455L28.098 42.6761C28.6562 43.449 29.3771 44.2544 30.6678 44.599V42.9373H32.4487V44.7569C34.3163 44.5969 35.7456 43.1938 35.7456 41.5148C35.7456 40.0703 35.0375 38.8806 32.6866 37.9459C30.3356 37.0112 28.3529 35.7366 28.3529 32.6209C28.3529 29.6752 30.9304 27.1543 34.2444 27.1543C36.9069 27.1543 38.1815 28.004 39.2012 28.9387Z" fill="white"/>
<path d="M37.1902 31.0064L36.828 31.3529L37.1871 31.7284L37.5495 31.3559L37.1902 31.0064ZM39.2012 28.9387L39.5605 29.2882L39.9204 28.9181L39.5399 28.5693L39.2012 28.9387ZM33.8762 35.3118L34.0614 34.846L34.0599 34.8454L33.8762 35.3118ZM32.4487 47.6384L32.4111 47.1386L31.9474 47.1735V47.6384H32.4487ZM32.4487 48.679H31.9474V49.1802H32.4487V48.679ZM34.4035 48.679H34.9047V48.1778H34.4035V48.679ZM34.4035 50.2449V50.7461H34.9047V50.2449H34.4035ZM30.6678 50.2449H30.1666V50.7461H30.6678V50.2449ZM30.6678 47.5896H31.169V47.1486L30.7316 47.0925L30.6678 47.5896ZM25.8604 44.5455L25.539 44.1609L25.1842 44.4573L25.4511 44.8349L25.8604 44.5455ZM28.098 42.6761L28.5043 42.3827L28.1894 41.9466L27.7766 42.2915L28.098 42.6761ZM30.6678 44.599L30.5385 45.0833L31.169 45.2516V44.599H30.6678ZM30.6678 42.9373V42.4361H30.1666V42.9373H30.6678ZM32.4487 42.9373H32.9499V42.4361H32.4487V42.9373ZM32.4487 44.7569H31.9474V45.3029L32.4914 45.2563L32.4487 44.7569ZM32.6866 37.9459L32.5014 38.4117L32.5014 38.4117L32.6866 37.9459ZM37.5495 31.3559L39.5605 29.2882L38.8419 28.5893L36.8309 30.657L37.5495 31.3559ZM34.0461 30.5446C35.5242 30.5446 36.3455 30.8485 36.828 31.3529L37.5523 30.66C36.7885 29.8615 35.6271 29.5422 34.0461 29.5422V30.5446ZM31.7999 32.3943C31.7999 31.9152 31.9825 31.4617 32.3371 31.1262C32.69 30.7923 33.2468 30.5446 34.0461 30.5446V29.5422C33.0327 29.5422 32.2158 29.861 31.6481 30.3981C31.0822 30.9335 30.7974 31.6555 30.7974 32.3943H31.7999ZM34.0599 34.8454C33.157 34.4897 32.5984 34.1299 32.2641 33.7466C31.9456 33.3815 31.7999 32.9594 31.7999 32.3943H30.7974C30.7974 33.1605 31.0058 33.829 31.5087 34.4055C31.9958 34.9641 32.7259 35.3973 33.6925 35.7781L34.0599 34.8454ZM39.1642 41.5431C39.1642 39.5721 38.55 38.139 37.5746 37.0699C36.6133 36.0163 35.333 35.3518 34.0614 34.846L33.691 35.7775C34.9119 36.2631 36.0251 36.859 36.8341 37.7456C37.629 38.6168 38.1618 39.8037 38.1618 41.5431H39.1642ZM32.4863 48.1382C36.3584 47.8469 39.1642 44.9521 39.1642 41.5431H38.1618C38.1618 44.3624 35.8279 46.8816 32.4111 47.1386L32.4863 48.1382ZM32.9499 48.679V47.6384H31.9474V48.679H32.9499ZM34.4035 48.1778H32.4487V49.1802H34.4035V48.1778ZM34.9047 50.2449V48.679H33.9023V50.2449H34.9047ZM30.6678 50.7461H34.4035V49.7437H30.6678V50.7461ZM30.1666 47.5896V50.2449H31.169V47.5896H30.1666ZM25.4511 44.8349C26.5095 46.3321 27.9733 47.749 30.604 48.0867L30.7316 47.0925C28.4757 46.8028 27.2323 45.618 26.2696 44.2562L25.4511 44.8349ZM27.7766 42.2915L25.539 44.1609L26.1817 44.9302L28.4193 43.0608L27.7766 42.2915ZM30.7971 44.1148C29.6713 43.8142 29.0365 43.1195 28.5043 42.3827L27.6917 42.9696C28.2759 43.7785 29.0829 44.6947 30.5385 45.0833L30.7971 44.1148ZM30.1666 42.9373V44.599H31.169V42.9373H30.1666ZM32.4487 42.4361H30.6678V43.4385H32.4487V42.4361ZM32.9499 44.7569V42.9373H31.9474V44.7569H32.9499ZM35.2444 41.5148C35.2444 42.8883 34.062 44.1157 32.4059 44.2576L32.4914 45.2563C34.5707 45.0782 36.2468 43.4993 36.2468 41.5148H35.2444ZM32.5014 38.4117C33.6305 38.8606 34.3079 39.349 34.7047 39.8503C35.0924 40.34 35.2444 40.8823 35.2444 41.5148H36.2468C36.2468 40.7028 36.0448 39.928 35.4907 39.2281C34.9457 38.5397 34.0935 37.9659 32.8717 37.4802L32.5014 38.4117ZM27.8517 32.6209C27.8517 34.3001 28.3919 35.5241 29.276 36.4479C30.1422 37.3528 31.3083 37.9373 32.5014 38.4117L32.8717 37.4802C31.7138 37.0198 30.7132 36.4997 30.0002 35.7547C29.3052 35.0286 28.8541 34.0575 28.8541 32.6209H27.8517ZM34.2444 26.6531C30.6817 26.6531 27.8517 29.3711 27.8517 32.6209H28.8541C28.8541 29.9792 31.1792 27.6555 34.2444 27.6555V26.6531ZM39.5399 28.5693C39.0072 28.081 38.3855 27.5943 37.534 27.2343C36.683 26.8746 35.6305 26.6531 34.2444 26.6531V27.6555C35.5208 27.6555 36.4368 27.8589 37.1437 28.1577C37.8501 28.4563 38.3755 28.8617 38.8625 29.3082L39.5399 28.5693Z" fill="white" mask="url(#path-6-outside-1_1517_898)"/>
<path d="M39.918 12.7074L40.4793 9.41046C40.5039 9.41348 40.5285 9.41314 40.5531 9.40939C40.6154 9.39986 40.6695 9.36946 40.7143 9.32972C40.8021 9.25173 40.8641 9.12895 40.8982 9.0019C40.9327 8.8736 40.942 8.72899 40.9131 8.59971C40.8892 8.49288 40.8373 8.39013 40.746 8.32139L41.5225 5.33129L41.5477 5.23409L41.4483 5.22036C40.7566 5.1249 40.2714 5.24255 39.9624 5.56423C39.6736 5.86487 39.5584 6.32431 39.5469 6.88615C39.5204 6.88341 39.4994 6.87971 39.4777 6.87191C39.4419 6.85904 39.399 6.83175 39.3358 6.75288L39.3033 6.71228L39.2519 6.72054C39.2082 6.72757 39.1636 6.74098 39.1237 6.76918C39.0829 6.79801 39.0535 6.83755 39.0327 6.88594C38.9989 6.96426 38.9843 7.07422 38.979 7.22282C38.9161 7.24446 38.8638 7.28838 38.8219 7.3417C38.7626 7.41716 38.7174 7.51919 38.6829 7.63262C38.6137 7.86039 38.5803 8.15856 38.5788 8.45232C38.5772 8.74625 38.6073 9.04373 38.6696 9.27066C38.7006 9.38352 38.7411 9.48491 38.794 9.56008C38.8295 9.61064 38.8754 9.65561 38.9323 9.67941V10.0604C38.9323 10.1464 38.9627 10.221 39.0258 10.2718C39.0857 10.3201 39.1636 10.3373 39.2416 10.3373H39.3063L39.3265 10.2759C39.3547 10.1901 39.3933 10.1342 39.4365 10.0962C39.4801 10.058 39.5336 10.0334 39.5986 10.0181C39.6645 10.0026 39.7397 9.99726 39.8245 9.99629C39.8735 9.99573 39.92 9.99652 39.9685 9.99735C39.9695 9.99737 39.9704 9.99738 39.9713 9.9974C39.5922 11.1024 38.7985 11.5211 38.1135 11.367C37.4411 11.2158 36.8144 10.5005 36.7465 9.21087L37.3084 9.81903L37.3385 9.85163L37.3827 9.84732C37.4322 9.84248 37.4811 9.8307 37.5248 9.80409C37.5699 9.77663 37.6028 9.73731 37.6258 9.68825C37.6615 9.61221 37.6749 9.5083 37.6776 9.37563C37.8298 9.35061 37.9629 9.26258 38.071 9.14071C38.1993 8.99598 38.2977 8.79845 38.3604 8.58008C38.4808 8.16075 38.4756 7.64164 38.2707 7.22761C38.3271 7.13105 38.3684 7.02278 38.3831 6.91554C38.4001 6.79124 38.3822 6.66019 38.2996 6.55531L38.2538 6.49718L38.1882 6.53134C38.1066 6.57378 38.054 6.58694 38.008 6.58596C37.9758 6.58528 37.9417 6.57761 37.8977 6.56056C37.9946 6.22548 38.0274 6.0029 38.0358 5.61509C38.0502 4.95328 37.6478 4.43502 36.9934 3.96228L36.9617 3.93935L36.9233 3.94715C36.3443 4.06492 35.967 4.30107 35.74 4.6934C35.5271 5.06135 35.4543 5.55438 35.4481 6.18159C35.4051 6.17998 35.3692 6.176 35.3358 6.16625C35.2869 6.152 35.2395 6.12382 35.1887 6.05755L35.1231 5.97192L35.0512 6.05235C34.9028 6.2184 34.8751 6.45387 34.9351 6.66489C34.8856 6.68698 34.8435 6.72263 34.8092 6.76661C34.7524 6.8395 34.7145 6.9372 34.6896 7.04384C34.6397 7.25793 34.6358 7.53653 34.6647 7.80959C34.6937 8.08314 34.7565 8.35992 34.8457 8.57101C34.8901 8.67623 34.9431 8.76993 35.0055 8.83878C35.0457 8.88311 35.0933 8.92084 35.1479 8.94197C35.1262 9.21235 35.1385 9.38432 35.2785 9.54679L35.3607 9.6422L35.4235 9.53308C35.5835 9.2554 35.8346 9.1221 36.2428 9.01553C35.9008 10.3079 35.1714 10.8893 34.5057 10.8696C33.8435 10.85 33.166 10.2331 32.9229 8.96555C33.2318 9.09784 33.3923 9.19672 33.5331 9.41359L33.5595 9.45428H33.608C33.6593 9.45428 33.7016 9.42903 33.7324 9.39813C33.7631 9.36733 33.7875 9.3263 33.8065 9.2799C33.8381 9.20275 33.8594 9.10005 33.8657 8.97443C34.0557 8.93624 34.1951 8.77537 34.2905 8.58483C34.402 8.36228 34.4693 8.07132 34.4957 7.78552C34.5221 7.49963 34.5084 7.20963 34.451 6.98746C34.4224 6.87683 34.3815 6.77669 34.324 6.70228C34.2906 6.65897 34.2499 6.62256 34.2021 6.59926C34.2292 6.52365 34.2458 6.45537 34.2492 6.38807C34.254 6.29064 34.2307 6.20372 34.1869 6.10709L34.1517 6.02908L34.0722 6.06104C33.972 6.10137 33.8768 6.11122 33.7132 6.11116C33.8371 5.82129 33.837 5.53617 33.837 5.21964V5.21053C33.837 4.78364 33.6225 4.37691 33.362 4.07988C33.2311 3.9306 33.0861 3.80597 32.9453 3.71801C32.8068 3.63141 32.6635 3.57474 32.5379 3.57474C32.4122 3.57474 32.2689 3.63141 32.1304 3.71801C31.9897 3.80597 31.8446 3.9306 31.7137 4.07988C31.4532 4.37691 31.2387 4.78364 31.2387 5.21053V5.21964C31.2386 5.53617 31.2386 5.82128 31.3625 6.11116C31.1988 6.11122 31.1037 6.10137 31.0035 6.06104L30.924 6.02908L30.8887 6.10709C30.845 6.20372 30.8217 6.29064 30.8265 6.38807C30.8299 6.45537 30.8465 6.52365 30.8736 6.59926C30.8258 6.62256 30.7851 6.65897 30.7516 6.70228C30.6942 6.77669 30.6532 6.87683 30.6247 6.98746C30.5673 7.20963 30.5536 7.49963 30.58 7.78552C30.6064 8.07132 30.6737 8.36228 30.7852 8.58483C30.8806 8.77536 31.0199 8.93624 31.21 8.97443C31.2163 9.10005 31.2375 9.20275 31.2692 9.2799C31.2882 9.3263 31.3126 9.36733 31.3433 9.39813C31.3741 9.42903 31.4164 9.45428 31.4677 9.45428H31.5162L31.5426 9.41359C31.6834 9.19672 31.8438 9.09784 32.1527 8.96555C31.9096 10.2331 31.2322 10.85 30.57 10.8696C29.9043 10.8893 29.1749 10.3079 28.8329 9.01553C29.2411 9.1221 29.4922 9.2554 29.6522 9.53308L29.715 9.6422L29.7972 9.54679C29.9372 9.38432 29.9495 9.21235 29.9277 8.94197C29.9824 8.92084 30.03 8.88311 30.0702 8.83878C30.1325 8.76993 30.1856 8.67623 30.23 8.57101C30.3192 8.35992 30.382 8.08314 30.411 7.80959C30.4399 7.53653 30.436 7.25793 30.3861 7.04384C30.3612 6.9372 30.3233 6.8395 30.2665 6.76661C30.2321 6.72263 30.1901 6.68698 30.1406 6.6649C30.2006 6.45387 30.1729 6.2184 30.0245 6.05235L29.9526 5.97192L29.887 6.05755C29.8362 6.12382 29.7887 6.152 29.7399 6.16625C29.7065 6.176 29.6706 6.17998 29.6276 6.1816C29.6214 5.55438 29.5486 5.06135 29.3357 4.6934C29.1087 4.30107 28.7313 4.06492 28.1524 3.94715L28.114 3.93935L28.0822 3.96228C27.4278 4.43502 27.0255 4.95328 27.0399 5.61509C27.0483 6.0029 27.0811 6.22548 27.178 6.56056C27.134 6.57761 27.0998 6.58528 27.0677 6.58596C27.0217 6.58694 26.9691 6.57378 26.8875 6.53134L26.8219 6.49718L26.7761 6.55531C26.6935 6.66019 26.6756 6.79124 26.6926 6.91554C26.7073 7.02278 26.7486 7.13105 26.805 7.22761C26.6001 7.64164 26.5949 8.16075 26.7153 8.58008C26.778 8.79845 26.8764 8.99598 27.0047 9.14071C27.1128 9.26258 27.2459 9.35061 27.3981 9.37563C27.4008 9.5083 27.4142 9.61221 27.4499 9.68825C27.4729 9.73731 27.5058 9.77663 27.5509 9.80409C27.5945 9.8307 27.6435 9.84248 27.693 9.84732L27.7372 9.85163L27.7673 9.81903L28.3292 9.21087C28.2613 10.5005 27.6346 11.2158 26.9622 11.367C26.2771 11.5211 25.4835 11.1024 25.1044 9.9974C25.1053 9.99738 25.1062 9.99737 25.1072 9.99735C25.1556 9.99652 25.2022 9.99573 25.2512 9.99629C25.336 9.99726 25.4112 10.0026 25.4771 10.0181C25.5421 10.0334 25.5956 10.058 25.6391 10.0962C25.6824 10.1342 25.721 10.1901 25.7492 10.2759L25.7694 10.3373H25.8341C25.9121 10.3373 25.9899 10.3201 26.0499 10.2718C26.113 10.221 26.1434 10.1464 26.1434 10.0604V9.67941C26.2003 9.65561 26.2462 9.61064 26.2817 9.56008C26.3345 9.48491 26.3751 9.38352 26.4061 9.27066C26.4684 9.04373 26.4985 8.74625 26.4969 8.45232C26.4953 8.15856 26.462 7.86039 26.3927 7.63262C26.3583 7.51919 26.3131 7.41716 26.2538 7.3417C26.2119 7.28838 26.1596 7.24446 26.0966 7.22282C26.0914 7.07422 26.0767 6.96426 26.043 6.88594C26.0222 6.83755 25.9928 6.79801 25.952 6.76918C25.9121 6.74098 25.8675 6.72757 25.8238 6.72054L25.7724 6.71228L25.7399 6.75288C25.6767 6.83175 25.6338 6.85904 25.598 6.87191C25.5763 6.87971 25.5553 6.88341 25.5288 6.88615C25.5173 6.32431 25.4021 5.86487 25.1133 5.56423C24.8043 5.24255 24.3191 5.1249 23.6274 5.22036L23.528 5.23409L23.5532 5.33129L24.3296 8.32139C24.2384 8.39012 24.1865 8.49288 24.1626 8.59971C24.1337 8.72899 24.143 8.8736 24.1775 9.0019C24.2116 9.12895 24.2736 9.25173 24.3614 9.32972C24.4062 9.36946 24.4603 9.39986 24.5226 9.40939C24.5471 9.41314 24.5718 9.41348 24.5964 9.41046L25.1577 12.7074C25.1192 12.7412 25.0883 12.7774 25.0644 12.8207C25.0328 12.8781 25.017 12.9414 25.0055 13.0143L25.0042 13.0224L25.0044 13.0306C25.0066 13.1132 25.0129 13.1768 25.0299 13.227C25.0493 13.284 25.0806 13.3191 25.119 13.3475L25.1184 13.3483L25.1299 13.3544L25.2684 13.4289L25.6588 15.5752C25.64 15.592 25.6224 15.6123 25.6063 15.6387C25.579 15.6836 25.5594 15.7412 25.5403 15.8183L25.5347 15.8411L25.541 15.8638C25.5784 15.9972 25.6167 16.1046 25.6744 16.1703C25.7063 16.2066 25.7462 16.2327 25.7953 16.2426C25.8417 16.2518 25.8878 16.2448 25.931 16.2314C28.5435 15.5151 30.2959 15.2663 32.5379 15.2663C34.7798 15.2663 36.5322 15.5151 39.1447 16.2314C39.1879 16.2448 39.234 16.2518 39.2804 16.2426C39.3295 16.2327 39.3694 16.2066 39.4013 16.1703C39.459 16.1046 39.4973 15.9972 39.5346 15.8638L39.541 15.8411L39.5354 15.8183C39.5163 15.7412 39.4967 15.6836 39.4694 15.6387C39.4533 15.6123 39.4357 15.592 39.4169 15.5752L39.8072 13.4289L39.9458 13.3544L39.9462 13.3553L39.9567 13.3475C39.9951 13.3191 40.0264 13.284 40.0458 13.227C40.0628 13.1768 40.0691 13.1132 40.0713 13.0306L40.0715 13.0224L40.0702 13.0143C40.0587 12.9414 40.0429 12.8781 40.0113 12.8207C39.9874 12.7774 39.9565 12.7412 39.918 12.7074Z" fill="white" stroke="white" stroke-width="0.178643"/>
<path d="M25.6432 16.142C25.596 15.9356 25.5925 15.8114 25.6273 15.5833C25.6423 15.4852 25.5871 15.0878 25.4661 14.421C25.295 13.4786 25.2741 13.3993 25.1676 13.2877C25.0386 13.1523 25.0125 12.9182 25.1076 12.7497C25.1843 12.6138 25.1812 12.5761 25.0183 11.6742C24.938 11.2295 24.812 10.5307 24.7382 10.1213C24.608 9.39898 24.5427 9.20199 24.4332 9.20199C24.4042 9.20199 24.3318 9.13667 24.2722 9.05683C24.1397 8.87918 24.1302 8.66612 24.2438 8.41962L24.3238 8.24628L24.2397 7.89233C24.0741 7.19552 23.5981 5.40211 23.5663 5.35584C23.4892 5.24328 23.5432 5.18983 23.7656 5.1584C24.0947 5.11189 24.51 5.2022 24.7803 5.37907C25.1016 5.58931 25.2679 5.9017 25.3479 6.44587C25.4195 6.93228 25.4186 6.9301 25.5291 6.89315C25.5832 6.87505 25.6557 6.82616 25.6902 6.78451C25.747 6.71594 25.7619 6.72079 25.8477 6.83578C25.8998 6.90564 25.9424 7.00389 25.9424 7.05413C25.9424 7.10437 26.009 7.23008 26.0904 7.33349C26.27 7.56155 26.3569 7.91222 26.3611 8.42666C26.3652 8.91185 26.2943 9.26523 26.1534 9.46278C26.0664 9.58468 26.0333 9.68454 26.0181 9.87139C26.0007 10.0851 25.9842 10.1251 25.8966 10.1663C25.8136 10.2053 25.78 10.1947 25.7109 10.1076C25.5872 9.95188 25.3754 9.84757 25.1829 9.84757C24.9574 9.84757 24.9404 9.9306 25.0953 10.2756C25.3603 10.8658 25.8696 11.3367 26.361 11.4459C27.2018 11.6326 28.0674 10.8383 28.294 9.67203C28.3684 9.28932 28.3679 9.10268 28.2927 9.10268C28.223 9.10268 27.9335 9.35737 27.771 9.56174C27.6233 9.74728 27.5263 9.71457 27.4482 9.45301C27.4038 9.30443 27.3603 9.24734 27.2563 9.20133C26.815 9.00616 26.5698 8.15472 26.7499 7.44351C26.8163 7.18104 26.8189 7.12969 26.7737 6.958C26.739 6.82624 26.734 6.72777 26.7577 6.64411C26.7869 6.541 26.8094 6.5268 26.9032 6.55196C27.0428 6.58938 27.1879 6.54249 27.214 6.45155C27.2249 6.41324 27.2018 6.24345 27.1625 6.07425C27.0302 5.50463 27.0965 5.04997 27.3715 4.63999C27.5803 4.32867 28.011 3.93805 28.1455 3.93805C28.3057 3.93805 28.7844 4.17384 29.0007 4.35926C29.3334 4.64449 29.4878 5.0586 29.5258 5.76756C29.5515 6.24793 29.5865 6.29451 29.8025 6.13591L29.9441 6.03196L29.9997 6.13823C30.0302 6.19668 30.0552 6.30945 30.0552 6.38883C30.0552 6.48344 30.099 6.59805 30.1822 6.72153C30.3279 6.9377 30.3749 7.21574 30.3376 7.64117C30.299 8.08124 30.1755 8.45788 29.9947 8.68656C29.8647 8.85103 29.8329 8.92471 29.8329 9.06193C29.8329 9.15584 29.8103 9.27415 29.7826 9.32484C29.7345 9.41296 29.7252 9.41027 29.5696 9.26343C29.4051 9.10827 28.9735 8.90404 28.8101 8.90404C28.6873 8.90404 28.6963 8.99854 28.8587 9.4182C29.1533 10.1797 29.7609 10.8021 30.2878 10.8821C31.1286 11.0096 31.7911 10.4382 32.1602 9.26728C32.254 8.96942 32.2609 8.87509 32.1914 8.83935C32.1239 8.80459 31.7506 9.01261 31.5948 9.17183C31.4407 9.32935 31.3753 9.30252 31.3002 9.05105C31.267 8.93961 31.1992 8.82774 31.1399 8.78619C30.6744 8.46033 30.477 7.23941 30.808 6.73309C30.9038 6.58666 30.926 6.50999 30.926 6.3255V6.09826L31.1758 6.11572C31.4864 6.13744 31.5021 6.10111 31.3938 5.61125C31.3503 5.41479 31.3148 5.18225 31.3149 5.09451C31.3151 4.82016 31.4516 4.42088 31.6203 4.20085C31.7608 4.01776 32.2498 3.6401 32.3464 3.6401C32.3667 3.6401 32.3898 3.61402 32.3978 3.58216C32.4152 3.51188 32.6455 3.50454 32.6799 3.57316C32.6934 3.60008 32.7795 3.66153 32.8712 3.70972C33.2192 3.8926 33.5327 4.22767 33.654 4.54639C33.7722 4.85672 33.7815 5.16125 33.6861 5.59184C33.573 6.10239 33.5874 6.13755 33.8997 6.11572L34.1495 6.09825V6.32549C34.1495 6.50999 34.1717 6.58666 34.2674 6.73309C34.5974 7.23781 34.4012 8.46021 33.9381 8.78441C33.8803 8.82492 33.8068 8.94896 33.7642 9.07794C33.7237 9.20079 33.6718 9.30131 33.6489 9.30131C33.626 9.30131 33.5523 9.24512 33.4851 9.17644C33.3374 9.02546 32.9184 8.79044 32.8693 8.83107C32.8152 8.87596 32.8268 8.98645 32.9153 9.26728C33.2836 10.436 33.9549 11.0165 34.7834 10.8828C35.3654 10.7889 35.9345 10.1831 36.2623 9.30833C36.3792 8.99652 36.3799 8.90403 36.2654 8.90403C36.1019 8.90403 35.6703 9.10827 35.5059 9.26343C35.3502 9.41027 35.3409 9.41296 35.2928 9.32483C35.2652 9.27415 35.2425 9.15584 35.2425 9.06193C35.2425 8.9247 35.2108 8.85103 35.0808 8.68656C34.8255 8.36362 34.6785 7.69468 34.7406 7.13897C34.7598 6.96789 34.8012 6.8571 34.8936 6.7296C34.9829 6.60632 35.0202 6.50905 35.0202 6.39964C35.0202 6.31432 35.0452 6.19668 35.0758 6.13823L35.1313 6.03196L35.2729 6.13591C35.4892 6.29472 35.524 6.24815 35.5494 5.7654C35.6016 4.77398 35.9304 4.27231 36.707 3.99933L36.9493 3.91416L37.1612 4.06256C37.2777 4.14418 37.4829 4.35627 37.6173 4.53386C37.9825 5.01682 38.0622 5.4317 37.913 6.07425C37.8737 6.24345 37.8505 6.41323 37.8615 6.45155C37.8875 6.54249 38.0326 6.58938 38.1722 6.55196C38.2666 6.52667 38.2885 6.54087 38.3185 6.64679C38.3431 6.73335 38.3386 6.83075 38.3039 6.96588C38.2594 7.13897 38.2619 7.1921 38.3269 7.4487C38.4176 7.80682 38.4009 8.22106 38.2806 8.59584C38.1868 8.888 37.9664 9.17455 37.8014 9.21878C37.7268 9.23878 37.6755 9.30148 37.627 9.43218C37.52 9.7205 37.4533 9.74913 37.3093 9.5686C37.1504 9.36933 36.8465 9.10267 36.7783 9.10267C36.7079 9.10267 36.7089 9.29905 36.7814 9.67203C37.0081 10.8383 37.8737 11.6326 38.7145 11.4459C39.2058 11.3367 39.7151 10.8658 39.9801 10.2756C40.135 9.93059 40.118 9.84757 39.8925 9.84757C39.7 9.84757 39.4882 9.95188 39.3645 10.1076C39.2954 10.1947 39.2618 10.2053 39.1788 10.1663C39.0912 10.1251 39.0747 10.0851 39.0573 9.87139C39.0421 9.68454 39.009 9.58467 38.9221 9.46278C38.6153 9.03287 38.647 7.76513 38.9752 7.33796C39.0506 7.23979 39.1295 7.09043 39.1504 7.00607C39.2065 6.78072 39.2834 6.73517 39.4399 6.8347C39.6568 6.97263 39.6488 6.98337 39.727 6.44587C39.856 5.55916 40.2891 5.1653 41.1431 5.15808C41.4792 5.15527 41.5414 5.16673 41.5414 5.23169C41.5414 5.27403 41.5266 5.32989 41.5085 5.35584C41.4701 5.41094 40.7632 8.13031 40.7635 8.22164C40.7637 8.25554 40.7969 8.35033 40.8374 8.43226C40.9877 8.73639 40.8969 9.06992 40.6239 9.21629C40.4847 9.29093 40.4822 9.29719 40.3969 9.78072C40.3494 10.0496 40.2207 10.7663 40.1108 11.3732C40.001 11.9802 39.9116 12.5165 39.9123 12.5651C39.9127 12.6136 39.9379 12.6967 39.9678 12.7497C40.0632 12.9186 40.0361 13.1399 39.9003 13.3022C39.7854 13.4395 39.7681 13.5076 39.5987 14.4866C39.4471 15.3623 39.4253 15.5492 39.4593 15.6784C39.5104 15.872 39.469 16.1248 39.3831 16.1441C39.3036 16.162 39.3005 16.1214 39.3738 16.0231C39.4947 15.8611 39.4252 15.6925 39.2014 15.6053C38.9866 15.5216 38.0623 15.2716 37.4842 15.1409C36.3615 14.887 34.7692 14.6839 34.205 14.7225L33.9642 14.7391L33.9522 14.9068C33.9457 14.999 33.954 15.0919 33.9707 15.1132C33.9875 15.1345 34.243 15.1774 34.5385 15.2085C35.2567 15.2841 36.2005 15.4326 36.9469 15.5875C37.7064 15.7451 39.1005 16.0941 39.1297 16.1339C39.1808 16.2033 38.6202 16.11 37.9844 15.9432C35.5498 15.3047 32.8729 15.0754 30.611 15.3117C29.4046 15.4377 27.8829 15.7145 26.9035 15.9862C26.4633 16.1083 25.9017 16.1968 25.9437 16.1375C25.9718 16.0978 26.9834 15.8367 27.795 15.6595C28.713 15.4591 29.4842 15.3301 30.3331 15.235C30.7203 15.1916 31.0589 15.1463 31.0856 15.1342C31.1171 15.12 31.1302 15.0468 31.1227 14.9257L31.1112 14.7391L30.8148 14.7233C30.2717 14.6945 28.9157 14.8612 27.8135 15.0923C26.9937 15.2641 25.8346 15.5937 25.7315 15.6842C25.6334 15.7704 25.6207 15.9147 25.7015 16.0231C25.7321 16.0641 25.7571 16.1104 25.7571 16.126C25.7571 16.1529 25.6491 16.1681 25.6431 16.142L25.6432 16.142ZM26.1228 15.4123C26.2933 15.3606 26.4488 15.2969 26.4683 15.2707C26.5168 15.2058 26.3904 14.3652 26.3272 14.3327C26.3006 14.3191 26.1198 14.3565 25.9254 14.4158C25.5244 14.5382 25.5377 14.5107 25.6277 15.0308C25.6993 15.4442 25.7187 15.5091 25.7704 15.5075C25.7937 15.5068 25.9523 15.464 26.1228 15.4123V15.4123ZM39.3877 15.3474C39.4488 15.0884 39.5197 14.5704 39.498 14.5413C39.4639 14.4956 38.7899 14.3113 38.7436 14.3351C38.6832 14.3661 38.5608 15.2087 38.6076 15.2714C38.6422 15.3178 39.1597 15.495 39.2876 15.5043C39.3264 15.5071 39.3638 15.4485 39.3877 15.3474ZM27.5357 15.0423C27.9534 14.9485 28.3995 14.8564 28.5269 14.8378C28.6543 14.8191 28.7684 14.7823 28.7805 14.7561C28.8141 14.6832 28.7199 13.8806 28.6714 13.8269C28.6054 13.7539 26.625 14.1799 26.5111 14.2915C26.4583 14.3433 26.4585 14.3844 26.513 14.738C26.5785 15.1622 26.6248 15.2761 26.7165 15.2378C26.7493 15.2241 27.1179 15.1361 27.5356 15.0423H27.5357ZM38.4527 15.2225C38.4758 15.2024 38.5234 14.9975 38.5584 14.767C38.616 14.3878 38.6165 14.3426 38.5641 14.2913C38.4504 14.1798 36.4699 13.7541 36.404 13.8269C36.3492 13.8875 36.2608 14.7097 36.3035 14.7616C36.3212 14.7831 36.594 14.8497 36.9099 14.9097C37.3612 14.9953 37.9101 15.1228 38.392 15.2539C38.4022 15.2567 38.4295 15.2426 38.4527 15.2225H38.4527ZM31.4724 15.0991C31.5242 15.0458 31.5344 14.8854 31.5446 13.9693C31.5555 12.9928 31.5635 12.8813 31.6382 12.6634C31.7422 12.3603 31.8406 12.1934 32.0019 12.0465C32.1162 11.9424 32.1301 11.9055 32.1301 11.7065C32.1301 11.5602 32.1122 11.474 32.0779 11.4564C31.9574 11.3944 31.5181 11.8159 31.4184 12.0892C31.2183 12.6377 31.224 12.59 31.2101 13.8346C31.1965 15.0599 31.2071 15.1612 31.3495 15.1612C31.3839 15.1612 31.4392 15.1332 31.4724 15.0991V15.0991ZM33.833 15.0892C33.8657 15.0364 33.8743 14.7038 33.8653 13.8353C33.8524 12.5877 33.859 12.6428 33.657 12.0892C33.5574 11.8159 33.118 11.3944 32.9975 11.4564C32.9634 11.4739 32.9453 11.56 32.9453 11.705C32.9453 11.9058 32.959 11.94 33.0894 12.0656C33.1686 12.142 33.2704 12.2767 33.3156 12.3651C33.4911 12.7084 33.5152 12.8919 33.5294 13.9942C33.5408 14.8853 33.5516 15.0461 33.6031 15.0991C33.6834 15.1817 33.7782 15.1776 33.833 15.0892L33.833 15.0892ZM32.4235 15.0199C32.4732 14.8955 32.4741 12.251 32.4244 12.1268C32.3518 11.9452 32.0939 12.0376 31.9027 12.3137C31.773 12.5009 31.7031 12.6972 31.6528 13.0158C31.6085 13.2963 31.5944 15.0227 31.636 15.0784C31.6496 15.0966 31.824 15.1115 32.0237 15.1115C32.3387 15.1115 32.3916 15.0994 32.4234 15.0199L32.4235 15.0199ZM33.4567 14.2176C33.4725 12.9895 33.4012 12.5781 33.1135 12.2397C32.9642 12.064 32.8641 12.018 32.6818 12.0414L32.5562 12.0574L32.5464 13.5438C32.5388 14.6996 32.5468 15.0393 32.5835 15.071C32.6092 15.0934 32.8137 15.1061 33.0379 15.0992L33.4455 15.0867L33.4567 14.2176ZM29.9626 14.6648C30.3498 14.6343 30.7666 14.5939 30.8889 14.5749L31.1112 14.5404L31.1218 14.0554C31.1309 13.6421 31.1234 13.5657 31.0713 13.5389C30.9288 13.4656 28.9052 13.703 28.8316 13.8016C28.8059 13.8361 28.8062 13.9704 28.8325 14.2212C28.8923 14.7917 28.8867 14.7801 29.0865 14.7479C29.1811 14.7327 29.5754 14.6953 29.9626 14.6648H29.9626ZM36.1864 14.6522C36.1968 14.5907 36.223 14.3846 36.2447 14.1941C36.2783 13.8982 36.2758 13.8397 36.2269 13.7919C36.1306 13.6975 34.1405 13.4687 34.0081 13.5368C33.9557 13.5638 33.9457 13.6441 33.9457 14.0393C33.9457 14.2981 33.9609 14.5223 33.9795 14.5378C33.9981 14.5532 34.3191 14.5897 34.6928 14.619C35.0664 14.6483 35.4972 14.6899 35.6501 14.7115C36.1367 14.7801 36.1652 14.777 36.1863 14.6522H36.1864ZM26.3129 14.1987C26.6492 14.105 27.0443 14.0022 27.1909 13.97C27.3375 13.9379 27.4733 13.8855 27.4928 13.8536C27.5275 13.7964 27.4276 12.9543 27.3716 12.8331C27.3576 12.8025 27.3056 12.7775 27.2562 12.7775C27.0018 12.7775 25.4855 13.2781 25.3966 13.3915C25.3605 13.4374 25.3666 13.5374 25.4254 13.8675C25.5067 14.3236 25.5511 14.4315 25.642 14.3937C25.6747 14.3801 25.9767 14.2923 26.3129 14.1987V14.1987ZM39.535 14.3508C39.5573 14.3148 39.6091 14.0973 39.65 13.8675C39.7089 13.537 39.7149 13.4372 39.6788 13.3901C39.6247 13.3194 39.1376 13.1345 38.5246 12.952C37.9436 12.779 37.7429 12.7483 37.7066 12.8269C37.691 12.8609 37.6485 13.0927 37.6122 13.3421C37.562 13.6866 37.5566 13.8093 37.5893 13.8528C37.613 13.8842 37.9492 13.9905 38.3364 14.0889C38.7236 14.1872 39.1321 14.2987 39.2442 14.3365C39.3562 14.3743 39.4584 14.4078 39.4712 14.4108C39.484 14.4138 39.5127 14.3868 39.535 14.3508V14.3508ZM29.166 13.5958C29.9952 13.4802 29.907 13.5471 29.907 13.0343C29.907 12.3803 29.9342 12.4018 29.1992 12.4733C28.3627 12.5546 27.5821 12.6821 27.5195 12.7477C27.4749 12.7944 27.4778 12.8739 27.5396 13.2969C27.5794 13.5689 27.6286 13.8053 27.649 13.8222C27.6694 13.8391 27.8899 13.8131 28.1389 13.7644C28.3879 13.7158 28.8501 13.6399 29.166 13.5958V13.5958ZM37.42 13.8286C37.4458 13.8066 37.4988 13.5667 37.5378 13.2955C37.6209 12.7168 37.6184 12.7103 37.2895 12.6579C36.868 12.5906 36.0314 12.4864 35.6444 12.4529C35.2772 12.4211 35.2469 12.4254 35.2111 12.5151C35.1554 12.6547 35.1472 13.4245 35.201 13.469C35.2248 13.4887 35.4647 13.5329 35.7343 13.5671C36.1086 13.6147 37.2253 13.8181 37.3545 13.8622C37.3647 13.8656 37.3941 13.8505 37.42 13.8286L37.42 13.8286ZM30.7576 13.4231C30.8992 13.4231 31.0293 13.3966 31.0628 13.361C31.1046 13.3165 31.128 13.1688 31.1453 12.8396L31.1694 12.3802L30.7142 12.3808C30.4638 12.3811 30.1942 12.3957 30.1149 12.4132L29.9709 12.4451L29.9915 12.9074C30.0028 13.1616 30.0241 13.3957 30.0387 13.4276C30.057 13.4671 30.1359 13.4756 30.2881 13.4543C30.4105 13.4371 30.6218 13.4231 30.7576 13.4231L30.7576 13.4231ZM35.062 13.2989C35.0749 13.217 35.0875 12.991 35.0899 12.7967L35.0943 12.4434L34.9224 12.4118C34.8279 12.3944 34.5625 12.3802 34.3327 12.3802C33.8785 12.3802 33.8594 12.3926 33.9143 12.653C33.9316 12.7348 33.9457 12.9178 33.9457 13.0598C33.9457 13.2117 33.9647 13.3344 33.992 13.3581C34.0376 13.3976 34.6563 13.4613 34.9089 13.4525C35.0218 13.4485 35.0414 13.4288 35.062 13.2989L35.062 13.2989ZM25.6901 13.1247C26.9212 12.6345 28.9959 12.2809 30.6406 12.2809C30.9123 12.2809 31.1654 12.2588 31.203 12.2319C31.3014 12.1613 31.4433 11.8371 31.4008 11.7801C31.329 11.6838 28.516 11.942 27.5357 12.1347C26.4388 12.3505 25.3196 12.6983 25.1579 12.8738C25.0388 13.0031 25.1167 13.2143 25.3044 13.2709C25.3102 13.2727 25.4837 13.2069 25.6901 13.1247V13.1247ZM39.9389 13.1354C40.0543 12.9386 39.961 12.8401 39.485 12.6563C38.7536 12.3739 37.5255 12.0972 36.3911 11.9594C35.3734 11.8357 33.7143 11.727 33.6737 11.7814C33.6215 11.8513 33.8149 12.224 33.918 12.2521C33.9638 12.2645 34.3764 12.2867 34.835 12.3014C36.5179 12.3554 38.0856 12.6349 39.2997 13.0976C39.752 13.27 39.8564 13.2761 39.9389 13.1354V13.1354ZM25.7795 12.4751C26.0219 12.3907 26.2349 12.303 26.2527 12.2802C26.2705 12.2574 26.2028 12.206 26.1023 12.166C25.828 12.0568 25.5005 11.8204 25.2739 11.5681C25.1627 11.4441 25.0601 11.3583 25.0459 11.3773C25.0048 11.4322 25.2413 12.6285 25.2932 12.6285C25.3182 12.6285 25.5371 12.5595 25.7795 12.4751ZM39.8236 12.5678C39.8665 12.4748 40.0533 11.417 40.0343 11.3744C40.0252 11.3538 39.9238 11.4394 39.809 11.5648C39.5744 11.8209 39.2455 12.0576 38.9741 12.1656C38.8741 12.2054 38.803 12.2532 38.8161 12.2719C38.8428 12.3099 39.6355 12.613 39.7329 12.6224C39.7674 12.6258 39.8082 12.6012 39.8236 12.5678V12.5678ZM27.1096 12.0645C27.7761 11.8264 28.3194 11.0999 28.5169 10.1828C28.5507 10.0257 28.59 9.89723 28.6041 9.89723C28.6183 9.89723 28.6828 10.0156 28.7473 10.1604C28.8997 10.5017 29.2056 10.9259 29.4624 11.1517C30.0635 11.6805 30.8377 11.6767 31.4551 11.1419C31.7577 10.8797 32.0903 10.4194 32.323 9.94067C32.4275 9.72559 32.5241 9.54961 32.5377 9.54961C32.5513 9.54961 32.6479 9.72559 32.7525 9.94067C33.1181 10.6929 33.614 11.2447 34.1037 11.4441C34.4377 11.58 34.9729 11.5561 35.2815 11.3913C35.5739 11.2352 35.9346 10.8532 36.1503 10.4711C36.2522 10.2907 36.3709 10.0833 36.4141 10.0102L36.4927 9.87733L36.556 10.1728C36.7024 10.856 37.12 11.5635 37.5456 11.8493C38.3128 12.3646 39.2008 12.1778 39.8301 11.3685C39.9603 11.2012 40.088 11.0084 40.114 10.9401C40.14 10.8718 40.224 10.4603 40.3006 10.0256C40.4357 9.25901 40.4378 9.2333 40.37 9.16733C40.3316 9.12993 40.2668 9.00676 40.2261 8.89362C40.1613 8.71396 40.125 8.67593 39.9389 8.5932C39.8217 8.54111 39.7258 8.478 39.7258 8.45296C39.7258 8.38738 39.8 8.39656 39.997 8.48652C40.1685 8.56486 40.1712 8.56438 40.2843 8.43685C40.3471 8.36603 40.4431 8.29559 40.4975 8.28032C40.552 8.26504 40.6193 8.23658 40.6472 8.21707C40.7118 8.17169 41.4402 5.38529 41.4126 5.28883C41.3957 5.22969 41.3183 5.22058 40.9881 5.23882C40.6249 5.25888 40.5595 5.27746 40.3381 5.42357C40.0566 5.60928 39.9051 5.84712 39.8181 6.23955C39.7161 6.70012 39.739 6.87063 39.9482 7.20612C40.2032 7.61525 40.18 7.71017 39.9191 7.3245C39.7615 7.09144 39.6694 6.99812 39.5591 6.95982C39.2889 6.86598 39.2365 6.87785 39.197 7.04179C39.1772 7.12373 39.1056 7.26899 39.0377 7.36458C38.8657 7.6069 38.7935 7.87025 38.7717 8.33552C38.7442 8.92318 38.8676 9.42278 39.0619 9.50958C39.0948 9.52428 39.1081 9.60224 39.1019 9.74383C39.0864 10.0968 39.205 10.1907 39.3952 9.97615C39.5544 9.79667 40.0354 9.68226 40.1657 9.79289C40.2484 9.86311 40.0054 10.4185 39.7266 10.7966C39.359 11.295 38.9505 11.5342 38.4646 11.5354C37.6813 11.5374 37.0343 10.8846 36.7599 9.81559C36.6719 9.47304 36.6206 8.85438 36.6801 8.85438C36.7022 8.85438 36.7307 8.87708 36.7435 8.90483C36.7563 8.93258 36.8929 9.07225 37.047 9.2152C37.2011 9.35816 37.3584 9.50579 37.3965 9.54327C37.4838 9.62917 37.5672 9.55067 37.5839 9.36684C37.593 9.26699 37.6329 9.22195 37.7772 9.14885C38.01 9.03083 38.1435 8.85718 38.2467 8.53816C38.3555 8.20174 38.3582 7.68309 38.2528 7.36189C38.186 7.1585 38.1839 7.12196 38.232 6.999C38.2614 6.9238 38.2802 6.81328 38.2739 6.75339C38.2636 6.65664 38.2368 6.64287 38.0331 6.62981C37.8375 6.61726 37.7703 6.63775 37.576 6.76921C37.4508 6.85396 37.3205 6.91515 37.2866 6.90518C37.2491 6.89418 37.3272 6.81695 37.4849 6.70884L37.745 6.53062L37.8277 6.18677C37.9489 5.68227 37.94 5.27538 37.8006 4.9496C37.6757 4.65783 37.3917 4.30594 37.1226 4.10966L36.9378 3.97484L36.717 4.0571C36.4104 4.17138 36.0856 4.40051 35.9247 4.61619C35.7237 4.88566 35.6393 5.18046 35.6206 5.67941L35.6047 6.10479L35.859 6.39801C35.9988 6.55928 36.1192 6.69608 36.1264 6.70201C36.1336 6.70794 36.133 6.73891 36.1251 6.77083C36.1169 6.80399 36.0136 6.72016 35.8842 6.5753C35.7597 6.43583 35.6347 6.32172 35.6065 6.32172C35.5782 6.32172 35.4639 6.28942 35.3525 6.24994C35.1688 6.18486 35.1456 6.1858 35.1033 6.25994C35.0749 6.30991 35.0656 6.40513 35.0796 6.50472C35.0995 6.64721 35.0905 6.67379 35.0075 6.71605C34.8626 6.78988 34.7979 7.00953 34.7979 7.42759C34.7979 8.03413 34.9483 8.52835 35.187 8.70636C35.2809 8.77638 35.2966 8.81554 35.2884 8.95838C35.283 9.0514 35.2951 9.16102 35.3152 9.20199C35.3467 9.26619 35.3762 9.25819 35.5288 9.14414C35.6261 9.07136 35.8474 8.95696 36.0207 8.88992C36.1939 8.82289 36.3648 8.75156 36.4004 8.73141C36.4491 8.70391 36.4653 8.71843 36.4653 8.78961C36.4653 8.94194 36.1792 9.69178 36.016 9.9671C35.06 11.5803 33.4221 11.2222 32.8691 9.27925C32.72 8.75521 32.7074 8.65573 32.7902 8.65573C32.828 8.65573 32.8691 8.66939 32.8815 8.68609C32.894 8.70279 33.0319 8.7909 33.1881 8.88189C33.3443 8.97288 33.5033 9.08521 33.5415 9.13151C33.6283 9.23687 33.7045 9.16745 33.7364 8.95387C33.7521 8.84848 33.7925 8.78808 33.8804 8.73891C34.1702 8.57661 34.3691 8.04938 34.3709 7.43907C34.3717 7.05436 34.2876 6.78381 34.1387 6.69475C34.0653 6.65079 34.0591 6.62097 34.0801 6.4092L34.1035 6.17274H33.8557C33.6085 6.17274 33.6074 6.17339 33.4081 6.42598C33.2982 6.56526 33.1871 6.66977 33.1613 6.65823C33.1325 6.64537 33.18 6.5521 33.2837 6.41741C33.6285 5.96995 33.7888 5.09731 33.6148 4.61544C33.5703 4.49217 33.4655 4.30859 33.382 4.2075C33.213 4.00284 32.6685 3.64009 32.5303 3.64009C32.397 3.64009 31.8617 4.00386 31.6911 4.21034C31.6089 4.30987 31.5056 4.49128 31.4614 4.61348C31.286 5.09922 31.4568 6.03889 31.7875 6.40677C31.8741 6.50314 31.9449 6.60164 31.9449 6.62566C31.9449 6.72534 31.848 6.65488 31.6636 6.42104C31.4686 6.17394 31.4665 6.17274 31.2196 6.17274H30.9715L30.9933 6.3857C31.0134 6.58293 31.0059 6.60843 30.8913 6.73105C30.5058 7.14322 30.7231 8.50318 31.2139 8.75119C31.2848 8.78697 31.3235 8.84923 31.3388 8.95176C31.3748 9.19285 31.4361 9.22367 31.594 9.08006C31.6701 9.01089 31.8307 8.90622 31.9509 8.84747C32.0711 8.78871 32.1783 8.72153 32.1891 8.69818C32.2079 8.65741 32.3525 8.63621 32.3525 8.67422C32.3525 8.7776 32.1361 9.53607 32.0461 9.74825C31.6501 10.6819 30.8446 11.1693 30.1175 10.9155C29.5158 10.7055 29.0645 10.1639 28.7561 9.28181C28.5939 8.81792 28.5727 8.67391 28.6751 8.73084C28.7107 8.75068 28.8956 8.82854 29.0859 8.90386C29.2762 8.97918 29.4798 9.08825 29.5383 9.14623C29.5968 9.20421 29.6701 9.25165 29.7011 9.25165C29.7637 9.25165 29.8045 9.0913 29.7881 8.90964C29.7801 8.82169 29.8061 8.76946 29.8885 8.70728C30.1294 8.52566 30.2779 8.03259 30.277 7.41764C30.2764 6.99057 30.2282 6.82267 30.0785 6.7265C29.9874 6.66795 29.9771 6.63947 29.9965 6.50061C30.0099 6.40539 30.0001 6.30809 29.9722 6.25779C29.9295 6.18093 29.9103 6.18009 29.7437 6.24779C29.6437 6.28845 29.5294 6.32172 29.4898 6.32172C29.4501 6.32172 29.3158 6.43583 29.1913 6.5753C29.0619 6.72016 28.9587 6.80399 28.9504 6.77083C28.9425 6.73891 28.9419 6.70794 28.9491 6.70201C28.9563 6.69608 29.0767 6.55927 29.2165 6.398L29.4708 6.10478L29.4549 5.67941C29.4362 5.18046 29.3518 4.88566 29.1508 4.61619C28.9899 4.40051 28.6651 4.17137 28.3585 4.0571L28.1377 3.97483L27.9529 4.10965C27.6838 4.30593 27.3998 4.65783 27.2749 4.9496C27.1355 5.27538 27.1266 5.68227 27.2478 6.18676L27.3304 6.53062L27.5827 6.7009C27.7215 6.79456 27.8252 6.89252 27.8132 6.91859C27.8009 6.94517 27.6786 6.88991 27.5347 6.79284C27.326 6.65198 27.2363 6.61968 27.0538 6.61968C26.7927 6.61968 26.759 6.67202 26.8313 6.96559C26.8718 7.12989 26.8687 7.18729 26.8085 7.39643C26.6673 7.88723 26.7635 8.60335 27.0139 8.92488C27.0703 8.99739 27.1984 9.09818 27.2983 9.14885C27.4426 9.22195 27.4825 9.26699 27.4916 9.36683C27.5163 9.63769 27.5823 9.62485 27.9581 9.2761C28.1529 9.0953 28.322 8.92645 28.3338 8.90087C28.3817 8.79703 28.425 8.8655 28.425 9.04507C28.425 9.31548 28.2991 9.94063 28.1828 10.2484C27.8956 11.0079 27.261 11.5368 26.6384 11.5354C26.124 11.5343 25.7238 11.3049 25.3489 10.7965C25.133 10.5038 24.8325 9.87846 24.8783 9.81712C24.8879 9.80422 24.9535 9.78111 25.0241 9.76576C25.2103 9.72526 25.5557 9.83572 25.6796 9.97534C25.8717 10.1921 26.0034 10.0882 25.9692 9.74668C25.9512 9.56616 25.9591 9.54062 26.0537 9.47509C26.2149 9.36334 26.2945 9.02677 26.2944 8.4571C26.2942 7.89822 26.2429 7.67124 26.054 7.39359C25.9781 7.28204 25.8995 7.12373 25.8793 7.04179C25.8389 6.87791 25.7864 6.86604 25.5164 6.95982C25.4061 6.99812 25.314 7.09143 25.1563 7.3245C24.8955 7.71017 24.8722 7.61524 25.1273 7.20611C25.3361 6.87126 25.3594 6.69994 25.2582 6.24344C25.1726 5.85706 25.0102 5.60358 24.7297 5.41852C24.499 5.26626 24.4617 5.257 24.0744 5.25556L23.6637 5.25403L23.6698 5.37818C23.6798 5.58164 24.3739 8.17901 24.4286 8.21728C24.4562 8.23667 24.5235 8.26503 24.5779 8.28031C24.6324 8.29558 24.7283 8.36603 24.7911 8.43684C24.9042 8.56438 24.907 8.56485 25.0785 8.48652C25.2755 8.39655 25.3496 8.38738 25.3496 8.45296C25.3496 8.47799 25.2538 8.54106 25.1366 8.5931C24.9545 8.67398 24.9137 8.71539 24.8557 8.87808C24.8184 8.98278 24.7526 9.10672 24.7095 9.1535L24.6311 9.23857L24.7727 10.0273C24.8506 10.461 24.9374 10.8766 24.9655 10.9508C25.1119 11.3362 25.707 11.9058 26.1252 12.0604C26.3518 12.1443 26.8804 12.1465 27.1096 12.0645L27.1096 12.0645ZM28.2952 8.14945C28.2545 8.11847 28.1834 8.03951 28.1373 7.97398C28.0881 7.90399 28.027 7.8649 27.9891 7.87921C27.8127 7.94595 27.6098 7.96571 27.6098 7.91615C27.6098 7.88695 27.6473 7.85362 27.6931 7.84207C28.0434 7.75383 28.0664 7.73904 28.1071 7.57598C28.1291 7.4874 28.1931 7.35785 28.2493 7.28809C28.3196 7.20065 28.3459 7.12728 28.3337 7.05186C28.2968 6.82327 28.2964 6.73389 28.3323 6.7241C28.3527 6.71853 28.3835 6.81467 28.4008 6.93775C28.4284 7.13327 28.4482 7.16851 28.5577 7.21698C28.6267 7.24748 28.7237 7.34194 28.7733 7.42689C28.8554 7.56744 28.8804 7.5803 29.0518 7.56982C29.2944 7.55498 29.2968 7.63966 29.0549 7.68266C28.8879 7.71236 28.8628 7.73386 28.7985 7.90274C28.6947 8.17545 28.4727 8.28431 28.2953 8.14944L28.2952 8.14945ZM28.5858 8.05434C28.7668 7.94384 28.8088 7.62621 28.6674 7.43681C28.5214 7.24107 28.3118 7.27867 28.2198 7.51711C28.1419 7.71898 28.1517 7.80066 28.2739 7.96432C28.3917 8.12228 28.448 8.13852 28.5858 8.05434V8.05434ZM36.4347 8.14653C36.3873 8.11599 36.3167 8.00717 36.2777 7.90473C36.2159 7.74248 36.1851 7.71411 36.0391 7.68477C35.801 7.63691 35.7876 7.55539 36.0202 7.56961C36.1955 7.58033 36.2197 7.56809 36.3021 7.42689C36.3517 7.34194 36.4495 7.24713 36.5195 7.2162C36.6325 7.1662 36.6494 7.13536 36.6714 6.93886C36.7077 6.61414 36.7765 6.59393 36.7535 6.91473C36.7368 7.14759 36.7449 7.18717 36.8315 7.2948C36.8847 7.36087 36.9463 7.4874 36.9684 7.57598C37.009 7.73904 37.032 7.75383 37.3823 7.84207C37.4281 7.85362 37.4656 7.88695 37.4656 7.91615C37.4656 7.96571 37.2627 7.94596 37.0863 7.87921C37.0483 7.86486 36.9874 7.90407 36.9381 7.97461C36.7768 8.20515 36.6126 8.26124 36.4347 8.14653L36.4347 8.14653ZM36.8016 7.96432C36.9237 7.80066 36.9336 7.71898 36.8557 7.51711C36.7637 7.27867 36.554 7.24107 36.408 7.43681C36.2624 7.63189 36.2963 7.90537 36.4838 8.0495C36.6032 8.14126 36.6862 8.11901 36.8016 7.96432ZM32.2034 7.66134C32.0663 7.46229 32.0649 7.46163 31.8571 7.49437C31.7238 7.51536 31.6485 7.50892 31.6485 7.47653C31.6485 7.41474 31.7736 7.36617 31.9352 7.36526C32.0347 7.3647 32.0711 7.33055 32.1496 7.16405C32.2015 7.05376 32.2851 6.93843 32.3353 6.90778C32.3855 6.87712 32.4285 6.81652 32.4308 6.77311C32.433 6.72969 32.439 6.67183 32.4437 6.64451C32.4484 6.6172 32.4549 6.48871 32.458 6.35897C32.4668 5.99201 32.5332 6.08158 32.5454 6.47677L32.5563 6.83045L32.6847 6.88646C32.769 6.92323 32.8494 7.01494 32.9187 7.15352C33.0058 7.32755 33.045 7.3647 33.1423 7.36526C33.302 7.36619 33.427 7.41501 33.427 7.47653C33.427 7.50892 33.3516 7.51536 33.2183 7.49436C33.0105 7.46162 33.0091 7.46229 32.872 7.66134C32.7445 7.8464 32.7198 7.86117 32.5377 7.86117C32.3556 7.86117 32.3309 7.84641 32.2034 7.66134L32.2034 7.66134ZM32.7802 7.63996C32.8906 7.49199 32.899 7.27258 32.8004 7.10937C32.7424 7.01348 32.6946 6.99213 32.5377 6.99213C32.3808 6.99213 32.333 7.01348 32.2751 7.10937C32.1064 7.38849 32.2567 7.76186 32.5377 7.76186C32.6493 7.76186 32.7133 7.72966 32.7802 7.63996H32.7802ZM28.2211 11.9109C28.4657 11.8723 28.9409 11.8161 29.2771 11.786C30.1506 11.7079 30.1885 11.6881 29.807 11.5092C29.5167 11.3731 29.136 10.9996 28.8948 10.6142C28.7762 10.4247 28.6646 10.2627 28.6469 10.2541C28.6291 10.2455 28.5579 10.402 28.4885 10.6017C28.336 11.0411 28.1198 11.415 27.8594 11.6897C27.5458 12.0205 27.5418 12.018 28.2211 11.9109V11.9109ZM37.4224 11.9387C37.4157 11.9144 37.3228 11.8023 37.216 11.6897C36.9556 11.415 36.7394 11.0411 36.5869 10.6017C36.5176 10.402 36.4463 10.2455 36.4286 10.2541C36.4108 10.2627 36.2993 10.4247 36.1807 10.6142C35.9339 11.0084 35.5474 11.3829 35.224 11.5411C35.0415 11.6304 35.0149 11.6569 35.0758 11.6888C35.1165 11.7101 35.5167 11.764 35.965 11.8085C36.4134 11.8529 36.8719 11.9076 36.984 11.9299C37.2709 11.9871 37.4369 11.9904 37.4224 11.9387V11.9387ZM32.8311 11.8637C32.8587 11.8192 32.8703 11.636 32.8634 11.3547L32.8527 10.9153H32.5377H32.2228L32.212 11.3547C32.2051 11.636 32.2168 11.8192 32.2443 11.8637C32.2735 11.9108 32.3683 11.9333 32.5377 11.9333C32.7072 11.9333 32.8019 11.9108 32.8311 11.8637H32.8311ZM31.8345 11.4361L32.1301 11.2369V11.015C32.1301 10.7455 32.1575 10.7305 32.6118 10.7516L32.9268 10.7663L32.9453 11.0068L32.9638 11.2473L33.2417 11.4409C33.4896 11.6136 33.5485 11.6345 33.7882 11.6349C33.9359 11.6351 34.0565 11.6186 34.0562 11.5981C34.0559 11.5776 33.9683 11.51 33.8617 11.4479C33.4496 11.2079 32.9203 10.556 32.6735 9.98452C32.6294 9.8823 32.5748 9.7985 32.5523 9.79829C32.5298 9.79809 32.402 9.99691 32.2684 10.2401C31.993 10.7415 31.6285 11.1709 31.2858 11.3974C31.1577 11.4821 31.0441 11.5703 31.0335 11.5934C31.0229 11.6164 31.1322 11.6353 31.2765 11.6353C31.5089 11.6353 31.5727 11.6126 31.8345 11.4361L31.8345 11.4361ZM24.717 8.97183C24.8048 8.82217 24.8105 8.75932 24.7519 8.58694C24.6279 8.22212 24.238 8.36603 24.238 8.77662C24.238 9.0893 24.5689 9.22416 24.717 8.97183ZM40.7633 9.00335C40.8974 8.82369 40.8416 8.49454 40.6616 8.40282C40.5346 8.33809 40.3793 8.42264 40.3235 8.58694C40.2649 8.75932 40.2706 8.82217 40.3584 8.97183C40.4546 9.13578 40.653 9.15122 40.7633 9.00335L40.7633 9.00335Z" fill="white"/>
<path d="M32.4253 15.0201C32.4744 14.8957 32.4753 12.2513 32.4262 12.1271C32.3545 11.9455 32.0996 12.0379 31.9106 12.314C31.7824 12.5012 31.7134 12.6975 31.6637 13.0161C31.6199 13.2965 31.606 15.023 31.647 15.0787C31.6605 15.0969 31.8329 15.1118 32.0302 15.1118C32.3415 15.1118 32.3938 15.0997 32.4252 15.0202L32.4253 15.0201ZM33.4463 14.2179C33.462 12.9898 33.3914 12.5784 33.1072 12.24C32.9597 12.0643 32.8607 12.0183 32.6805 12.0416L32.5565 12.0577L32.5467 13.5441C32.5392 14.6998 32.5472 15.0396 32.5834 15.0713C32.6088 15.0937 32.8109 15.1064 33.0325 15.0995L33.4353 15.087L33.4463 14.2179Z" fill="white"/>
<path d="M32.4253 15.0201C32.4744 14.8957 32.4753 12.2513 32.4262 12.1271C32.3545 11.9455 32.0996 12.0379 31.9106 12.314C31.7824 12.5012 31.7134 12.6975 31.6637 13.0161C31.6199 13.2965 31.606 15.023 31.647 15.0787C31.6605 15.0969 31.8329 15.1118 32.0302 15.1118C32.3415 15.1118 32.3938 15.0997 32.4252 15.0202L32.4253 15.0201Z" fill="white"/>
<path d="M33.4463 14.2179C33.462 12.9898 33.3914 12.5784 33.1072 12.24C32.9597 12.0643 32.8607 12.0183 32.6805 12.0416L32.5565 12.0577L32.5467 13.5441C32.5392 14.6998 32.5472 15.0396 32.5834 15.0713C32.6088 15.0937 32.8109 15.1064 33.0325 15.0995L33.4353 15.087L33.4463 14.2179Z" fill="white"/>
</svg>
